<svg version="1.1" viewBox="0.0 0.0 32.0 32.0" fill="none" stroke="none" stroke-linecap="square" stroke-miterlimit="10" xmlns:xlink="http://www.w3.org/1999/xlink" xmlns="http://www.w3.org/2000/svg"><clipPath id="p.0"><path d="m0 0l32.0 0l0 32.0l-32.0 0l0 -32.0z" clip-rule="nonzero"/></clipPath><g clip-path="url(#p.0)"><path fill="#000000" fill-opacity="0.0" d="m0 0l32.0 0l0 32.0l-32.0 0z" fill-rule="evenodd"/><g filter="url(#shadowFilter-p.1)"><use xlink:href="#p.1" transform="matrix(1.0 0.0 0.0 1.0 0.05233595800524948 0.9986301837270348)"/></g><defs><filter id="shadowFilter-p.1" filterUnits="userSpaceOnUse"><feGaussianBlur in="SourceAlpha" stdDeviation="0.5" result="blur"/><feComponentTransfer in="blur" color-interpolation-filters="sRGB"><feFuncR type="linear" slope="0" intercept="0.0"/><feFuncG type="linear" slope="0" intercept="0.0"/><feFuncB type="linear" slope="0" intercept="0.0"/><feFuncA type="linear" slope="0.35" intercept="0"/></feComponentTransfer></filter></defs><g id="p.1"><defs><linearGradient id="p.2" gradientUnits="userSpaceOnUse" gradientTransform="matrix(2.602254506321159 0.0 0.0 2.602254506321159 0.0 0.0)" spreadMethod="pad" x1="2.1619230642457996" y1="2.3525751113295557" x2="2.1619137069813443" y2="4.954829617633891"><stop offset="0.0" stop-color="#fdda5c"/><stop offset="1.0" stop-color="#ffb066"/></linearGradient></defs><path fill="url(#p.2)" d="m5.625874 8.477797l0 0c0 -1.3010297 1.0546932 -2.355723 2.355723 -2.355723l16.012962 0c0.62477684 0 1.2239647 0.24819183 1.6657486 0.68997526c0.4417839 0.4417839 0.68997383 1.0409713 0.68997383 1.6657476l0 2.0602083l0 0c0 1.3010292 -1.0546913 2.3557224 -2.3557224 2.3557224l-16.012962 0c-1.3010297 0 -2.355723 -1.0546932 -2.355723 -2.3557224z" fill-rule="evenodd"/></g><g filter="url(#shadowFilter-p.3)"><use xlink:href="#p.3" transform="matrix(1.0 0.0 0.0 1.0 0.05233595800524948 0.9986301837270348)"/></g><defs><filter id="shadowFilter-p.3" filterUnits="userSpaceOnUse"><feGaussianBlur in="SourceAlpha" stdDeviation="0.5" result="blur"/><feComponentTransfer in="blur" color-interpolation-filters="sRGB"><feFuncR type="linear" slope="0" intercept="0.0"/><feFuncG type="linear" slope="0" intercept="0.0"/><feFuncB type="linear" slope="0" intercept="0.0"/><feFuncA type="linear" slope="0.35" intercept="0"/></feComponentTransfer></filter></defs><g id="p.3"><defs><linearGradient id="p.4" gradientUnits="userSpaceOnUse" gradientTransform="matrix(4.210981534711503 0.0 0.0 4.210981534711503 0.0 0.0)" spreadMethod="pad" x1="1.1144464413207849" y1="1.965150199746763" x2="1.1144311481407532" y2="6.176131734430496"><stop offset="0.0" stop-color="#fdda5c"/><stop offset="1.0" stop-color="#ffb066"/></linearGradient></defs><path fill="url(#p.4)" d="m4.692913 10.521087l0 0c0 -1.2403173 1.005476 -2.2457933 2.2457938 -2.2457933l18.122585 0c0.5956211 0 1.1668472 0.23660946 1.5880165 0.65777683c0.42116737 0.42116833 0.6577778 0.99239445 0.6577778 1.5880165l0 13.240697c0 1.2403164 -1.005476 2.2457924 -2.2457943 2.2457924l-18.122585 0c-1.2403178 0 -2.2457938 -1.005476 -2.2457938 -2.2457924z" fill-rule="evenodd"/></g></g></svg>